<svg width="80" height="80" viewBox="0 0 80 80" fill="none" xmlns="http://www.w3.org/2000/svg">
<rect width="80" height="80" rx="15" fill="#090207"/>
<rect x="64.7974" y="36.4141" width="29.28" height="29.28" rx="14.64" transform="rotate(90 64.7974 36.4141)" fill="#E43712"/>
<rect x="43.4473" y="49.2241" width="3.66" height="3.66" rx="1.83" fill="#FF866C"/>
<rect x="48.3271" y="49.2241" width="3.66" height="3.66" rx="1.83" fill="#FF866C"/>
<rect x="53.2075" y="49.2241" width="3.66" height="3.66" rx="1.83" fill="#FF866C"/>
<rect x="51.2622" y="12.8823" width="38.38" height="38.38" rx="19.19" transform="rotate(90 51.2622 12.8823)" fill="#FF866C" stroke="#090207" stroke-width="3"/>
<path d="M32.3382 24.1421C29.5111 24.1421 27.3259 25.6142 26.7388 27.9798C26.5619 28.6925 27.1778 29.2973 27.912 29.2973C28.6277 29.2973 29.177 28.7114 29.431 28.0423C29.8508 26.9362 30.8175 26.2845 32.2939 26.2845C33.6885 26.2845 34.8618 26.9987 34.8618 28.2708C34.8618 29.5428 33.932 30.3686 32.6259 31.1497C30.9878 32.1539 30.1245 33.0912 30.1245 35.1667C30.1245 35.5858 30.4642 35.9255 30.8832 35.9255H32.0669C32.449 35.9255 32.7588 35.6158 32.7588 35.2337C32.7588 33.7608 33.4007 33.3144 34.7732 32.4664C36.1236 31.6406 37.5625 30.2123 37.5625 28.1145C37.5625 25.3695 34.9946 24.1421 32.3382 24.1421ZM31.4527 40.6121C32.284 40.6121 32.958 39.9259 32.958 39.0945C32.958 38.2632 32.284 37.577 31.4527 37.577C30.6213 37.577 29.9474 38.2632 29.9474 39.0945C29.9474 39.9259 30.6213 40.6121 31.4527 40.6121Z" fill="#E43712"/>
</svg>
