<svg width="120" height="120" viewBox="0 0 120 120" fill="none" xmlns="http://www.w3.org/2000/svg">
<rect width="120" height="120" rx="15" fill="#090207"/>
<rect x="16.8008" y="27" width="86.4" height="52.8" rx="9.6" fill="#FF866C"/>
<path d="M90.9001 11.5347L80.034 18.0915C78.3485 18.8795 77.1488 20.5265 77.0602 22.4856C76.9672 24.5456 76.9246 27.9723 77.3747 31.5472C77.8175 35.0635 78.769 39.0096 80.8585 41.8924C82.3918 44.0077 84.774 45.8713 86.9115 47.2929C91.2156 50.1554 96.7844 50.1554 101.089 47.2929C103.226 45.8713 105.608 44.0077 107.141 41.8924C109.231 39.0096 110.183 35.0635 110.625 31.5472C111.075 27.9723 111.033 24.5456 110.94 22.4856C110.851 20.5265 109.652 18.8795 107.966 18.0915L97.0999 11.5347C95.1934 10.3842 92.8066 10.3842 90.9001 11.5347Z" fill="#E43712" stroke="#090207" stroke-width="4"/>
<path d="M55.8439 74.9998C57.6914 71.7998 62.3102 71.7998 64.1577 74.9998L72.4715 89.3998C74.3191 92.5998 72.0097 96.5998 68.3146 96.5998H51.6869C47.9919 96.5998 45.6825 92.5998 47.53 89.3998L55.8439 74.9998Z" fill="#E43712"/>
</svg>
