<svg width="80" height="23" viewBox="0 0 80 23" fill="none" xmlns="http://www.w3.org/2000/svg">
<g clip-path="url(#clip0_909_8058)">
<path d="M18.2189 0.0957031H4.2853C1.91859 0.0957031 0 2.04039 0 4.43929V18.5624C0 20.9613 1.91859 22.906 4.2853 22.906H18.2189C20.5856 22.906 22.5042 20.9613 22.5042 18.5624V4.43929C22.5042 2.04039 20.5856 0.0957031 18.2189 0.0957031Z" fill="url(#paint0_linear_909_8058)"/>
<path d="M18.2189 0.0957031H4.2853C1.91859 0.0957031 0 2.04039 0 4.43929V18.5624C0 20.9613 1.91859 22.906 4.2853 22.906H18.2189C20.5856 22.906 22.5042 20.9613 22.5042 18.5624V4.43929C22.5042 2.04039 20.5856 0.0957031 18.2189 0.0957031Z" fill="url(#paint1_linear_909_8058)"/>
<path d="M18.2189 0.0957031H4.2853C1.91859 0.0957031 0 2.04039 0 4.43929V18.5624C0 20.9613 1.91859 22.906 4.2853 22.906H18.2189C20.5856 22.906 22.5042 20.9613 22.5042 18.5624V4.43929C22.5042 2.04039 20.5856 0.0957031 18.2189 0.0957031Z" fill="url(#paint2_linear_909_8058)"/>
<path d="M22.5038 8.49997V15.0974C22.5038 18.1694 19.948 20.6694 16.8043 20.6694C13.6606 20.6694 11.1026 18.1694 11.1026 15.0974V7.8847C11.1026 6.61098 9.99082 5.57474 8.61919 5.57474C7.24755 5.57474 6.13576 6.61098 6.13576 7.8847V11.3388H9.09225V14.6289H6.13576V20.0951H2.89197V7.8847C2.89197 4.79756 5.46059 2.28467 8.61919 2.28467C11.7778 2.28467 14.3485 4.79756 14.3485 7.8847V15.1147C14.3485 16.3668 15.4561 17.3814 16.8043 17.3814C18.1525 17.3814 19.2451 16.3689 19.2579 15.119V8.49997H22.5038Z" fill="white"/>
<path d="M18.462 4.74658H15.4896V8.0367H18.462V4.74658Z" fill="white"/>
<path d="M39.8627 20.1484H36.3208V8.82307H32.044C31.9801 11.3432 31.8921 13.4372 31.7799 15.1053C31.6933 16.5057 31.4703 17.5851 31.1111 18.3436C30.7677 19.0868 30.1587 19.6701 29.4072 19.9756C28.6334 20.3081 27.5429 20.4736 26.1357 20.4722V17.7218C26.5754 17.7471 27.0144 17.6618 27.4137 17.4735C27.7016 17.3172 27.923 17.059 28.0356 16.7482C28.1764 16.3164 28.2553 15.8664 28.2699 15.4119C28.3579 14.2921 28.4239 12.8687 28.4679 11.1417C28.512 9.41459 28.534 7.68752 28.534 5.96045H39.8585L39.8627 20.1484Z" fill="white"/>
<path d="M51.6778 9.83301C52.4673 10.6965 52.8627 11.9005 52.8642 13.4448V20.148H49.6417V19.2132L49.7546 18.1618H49.7183C49.4073 18.8533 48.9105 19.442 48.2849 19.8608C47.6068 20.2859 46.8199 20.4984 46.023 20.4718C44.6173 20.4718 43.5843 20.122 42.9241 19.4226C42.5932 19.065 42.3355 18.6445 42.1659 18.1854C41.9963 17.7263 41.9181 17.2377 41.9358 16.7478C41.9185 16.2548 42.0093 15.7641 42.2015 15.3109C42.3938 14.8577 42.6827 14.4534 43.0476 14.1269C43.7888 13.4577 44.9446 13.1231 46.515 13.1231C47.086 13.1215 47.6561 13.1699 48.2189 13.2677C48.7065 13.3455 49.1857 13.4698 49.6502 13.639V12.9914C49.6713 12.452 49.4858 11.9252 49.1326 11.5212C48.7876 11.1398 48.2317 10.9491 47.4649 10.9491C46.7855 10.9491 46.2807 11.1067 45.9485 11.4262C45.7859 11.5775 45.6546 11.7599 45.5621 11.963C45.4696 12.1661 45.4178 12.3858 45.4096 12.6093V12.6481H42.2745C42.2898 12.1005 42.4117 11.5613 42.6332 11.0615C42.8547 10.5617 43.1714 10.1112 43.5652 9.73586C44.3745 8.93853 45.6901 8.54059 47.5118 8.54202C49.4968 8.53771 50.8855 8.96804 51.6778 9.83301ZM48.7727 17.2443C49.2079 16.8211 49.4932 16.2641 49.5842 15.6597C49.2173 15.4984 48.8346 15.3768 48.4426 15.297C48.019 15.1992 47.5863 15.1478 47.1519 15.1438C46.3851 15.1438 45.859 15.2776 45.5694 15.5453C45.4329 15.6665 45.3241 15.8164 45.2506 15.9846C45.177 16.1527 45.1404 16.335 45.1434 16.5189C45.1347 16.7086 45.1694 16.8977 45.2447 17.0714C45.3201 17.2452 45.4341 17.399 45.5779 17.5206C45.8718 17.7711 46.3404 17.8941 46.9815 17.8941C47.3077 17.9123 47.6342 17.8641 47.9418 17.7525C48.2494 17.6409 48.5319 17.4681 48.7727 17.2443Z" fill="white"/>
<path d="M66.829 8.8401V20.1481H63.7939V13.7104L63.8706 13.1578L63.7939 13.1383L63.5809 13.596L58.3308 20.1481H55.2595V8.8401H58.3116V15.3727L58.2179 15.947L58.2925 15.9643L58.5054 15.4872L63.7641 8.8401H66.829ZM58.6418 6.75034C58.1462 6.2351 57.9332 5.45504 58.0028 4.41016H59.9197C59.9048 4.51741 59.8984 4.6257 59.9005 4.73398C59.886 4.88912 59.9027 5.04563 59.9495 5.19406C59.9964 5.34248 60.0725 5.47973 60.1731 5.59752C60.4125 5.79467 60.7177 5.89057 61.0251 5.86521C61.4511 5.86521 61.7556 5.7508 61.9388 5.52196C62.122 5.29312 62.188 4.92396 62.1369 4.41447H64.0388C64.0535 4.5579 64.0599 4.70206 64.058 4.84624C64.058 5.75152 63.8102 6.42364 63.3147 6.8626C62.8191 7.30156 62.0559 7.51745 61.0251 7.51025C59.9332 7.51889 59.1387 7.26558 58.6418 6.75034Z" fill="white"/>
<path d="M76.759 13.0247V8.84082H80.0007V20.1488H76.759V15.5656H72.5568V20.1488H69.3173V8.84082H72.5568V13.0247H76.759Z" fill="white"/>
</g>
<defs>
<linearGradient id="paint0_linear_909_8058" x1="21.2476" y1="21.6323" x2="0.984392" y2="1.64104" gradientUnits="userSpaceOnUse">
<stop stop-color="#FFBBFF"/>
<stop offset="0.2" stop-color="#F4D07F"/>
<stop offset="0.6" stop-color="#5FF2AC"/>
<stop offset="1" stop-color="#4EC2EA"/>
</linearGradient>
<linearGradient id="paint1_linear_909_8058" x1="24.0741" y1="24.0465" x2="1.17239" y2="1.16542" gradientUnits="userSpaceOnUse">
<stop offset="0.0561434" stop-color="#FF7629"/>
<stop offset="0.331597" stop-color="#FF71FF"/>
<stop offset="0.513889" stop-color="#8D83FB"/>
<stop offset="0.8145" stop-color="#247CFF"/>
<stop offset="1" stop-color="#00EAFF"/>
</linearGradient>
<linearGradient id="paint2_linear_909_8058" x1="21.8374" y1="21.4889" x2="1.2065" y2="1.13477" gradientUnits="userSpaceOnUse">
<stop offset="0.128056" stop-color="#FF5E3B"/>
<stop offset="0.272679" stop-color="#F93EAE"/>
<stop offset="0.425786" stop-color="#A931E1"/>
<stop offset="0.563905" stop-color="#672AFF"/>
<stop offset="0.717514" stop-color="#247CFF"/>
<stop offset="0.970517" stop-color="#00EAFF"/>
</linearGradient>
<clipPath id="clip0_909_8058">
<rect width="80" height="23" fill="white"/>
</clipPath>
</defs>
</svg>
