<svg width="120" height="120" viewBox="0 0 120 120" fill="none" xmlns="http://www.w3.org/2000/svg">
<rect width="120" height="120" rx="15" fill="#090207"/>
<path d="M59.778 62.7451H21.7254C19.6679 62.7451 18 64.413 18 66.4705C18 68.528 19.6679 70.196 21.7254 70.196H59.778C61.8355 70.196 63.5034 68.528 63.5034 66.4705C63.5034 64.413 61.8355 62.7451 59.778 62.7451Z" fill="#FF866C"/>
<path d="M66.6037 72.6799H28.5512C26.4937 72.6799 24.8257 74.3479 24.8257 76.4054C24.8257 78.463 26.4937 80.131 28.5512 80.131H66.6037C68.6613 80.131 70.3293 78.463 70.3293 76.4054C70.3293 74.3479 68.6613 72.6799 66.6037 72.6799Z" fill="#E43712"/>
<path d="M59.7782 82.6145H21.7253C19.6679 82.6145 18 84.2824 18 86.3398C18 88.3972 19.6679 90.065 21.7253 90.065H59.7781C61.8356 90.065 63.5034 88.3972 63.5034 86.3398C63.5034 84.2824 61.8356 82.6145 59.7782 82.6145Z" fill="#FF866C"/>
<path d="M62.0529 92.5488H24.0005C21.9429 92.5488 20.2749 94.2168 20.2749 96.2744C20.2749 98.332 21.9429 100 24.0005 100H62.0529C64.1105 100 65.7785 98.332 65.7785 96.2744C65.7785 94.2168 64.1105 92.5488 62.0529 92.5488Z" fill="#E43712"/>
<path d="M99.9794 97.1352C98.5688 98.675 96.1417 98.675 94.7311 97.1352L69.6566 69.7632C68.4105 68.4028 68.4105 66.3158 69.6566 64.9555V64.9555C71.0671 63.4156 73.4943 63.4156 74.9049 64.9554L99.9795 92.3273C101.226 93.6877 101.226 95.7748 99.9794 97.1352V97.1352Z" fill="#E43712"/>
<path d="M62.5811 39.6729C62.5811 48.8811 55.1164 56.3458 45.9082 56.3458C36.7001 56.3458 29.2354 48.8811 29.2354 39.6729C29.2354 30.4647 36.7001 23 45.9082 23C55.1164 23 62.5811 30.4647 62.5811 39.6729Z" stroke="#E43712" stroke-width="6"/>
<path d="M44.3037 42.135H46.465C50.2526 42.135 52.908 41.0028 52.908 37.4623C52.908 33.7572 50.2526 32.8103 46.465 32.8103H41.6895V39.9736H39.9604V42.135H41.6895V43.6582H39.9604V45.3049H41.6895V47.7339H44.3037V45.3049H48.8735V43.6582H44.3037V42.135ZM44.3037 39.9736V34.9922H46.568C48.5852 34.9922 50.2114 35.3833 50.2114 37.4623C50.2114 39.5619 48.5852 39.9736 46.568 39.9736H44.3037Z" fill="#FF866C"/>
</svg>
